# xmcd
#
# Track frame offsets: 
#        150
#        22330
#        39482
#        65560
#        82172
#        101627
#        121022
#        140160
#        162032
#        178257
#        202040
#
# Disc length: 2889 seconds
#
# Revision: 3
# Processed by: cddbd v1.5.2PL0 Copyright (c) Steve Scherf et al.
# Submitted via: ExactAudioCopy v1.3
#
DISCID=a20b470b
DTITLE=Iceman Robinson - I've Never Been Loved
DYEAR=2001
DGENRE=Blues
TTITLE0=My Baby's Comin' Home
TTITLE1=Sadie
TTITLE2=Too Old A Cat
TTITLE3=Chicago Lakefront
TTITLE4=Iceman's Boogie
TTITLE5=I Have a Need
TTITLE6=I've Never Been Loved
TTITLE7=Workin' Man
TTITLE8=Baby How Long
TTITLE9=Robinson's Rock
TTITLE10=Waitin' On My Baby
EXTD=YEAR: 2001
EXTT0=
EXTT1=
EXTT2=
EXTT3=
EXTT4=
EXTT5=
EXTT6=
EXTT7=
EXTT8=
EXTT9=
EXTT10=
PLAYORDER=
